<?xml version="1.0" encoding="utf-8"?>
<!-- Generator: Adobe Illustrator 24.2.0, SVG Export Plug-In . SVG Version: 6.00 Build 0)  -->
<svg version="1.1" id="Layer_1" xmlns="http://www.w3.org/2000/svg" xmlns:xlink="http://www.w3.org/1999/xlink" x="0px" y="0px"
	 viewBox="0 0 88 88" style="enable-background:new 0 0 88 88;" xml:space="preserve">
<style type="text/css">
	.st0{fill:none;stroke:#060606;stroke-width:1.5;stroke-linecap:round;stroke-linejoin:round;}
	.st1{fill:none;}
</style>
<desc>Created with Sketch.</desc>
<g id="Liquid-Academy">
	<g id="Alle-Inhalte---6-Items-Level-2" transform="translate(-688.000000, -441.000000)">
		<g id="liqd-academy-icon_digital-trends" transform="translate(689.000000, 442.000000)">
			<path id="Path" class="st0" d="M63,49.3v23.4c0,3.5-2.8,6.3-6.3,6.3H29.3c-3.5,0-6.3-2.8-6.3-6.3V59.1"/>
			<path id="Path_1_" class="st0" d="M23,44.8V13.3C23,9.8,25.8,7,29.3,7h27.4c3.5,0,6.3,2.8,6.3,6.3v11.2"/>
			<line id="Path_2_" class="st0" x1="63" y1="69" x2="23" y2="69"/>
			<line id="Path_3_" class="st0" x1="63" y1="17" x2="23" y2="17"/>
			<line id="Path_4_" class="st0" x1="49" y1="12" x2="37" y2="12"/>
			<line id="Path_5_" class="st0" x1="46" y1="74" x2="40" y2="74"/>
			<path id="Path_6_" class="st0" d="M32,50.2l6.3,6.3l1.4,1.4c0.8,0.8,1.8,1.2,2.8,1.2s2.1-0.4,2.8-1.2l1.4-1.4l5.7-5.6l6.1-6.1
				l4.8,4.8c1.6,1.5,3.4,1,3.9-1.1l6.2-23.1c0.6-2.1-0.7-3.4-2.8-2.8l-23.1,6.2c-2.1,0.6-2.6,2.3-1,3.9l2.2,2.4l2.8,2.8l-8.9,8.9
				l-1.8-1.8l-4.6-4.6l-1.4-1.4c-1.6-1.6-4.1-1.6-5.7,0l-1.4,1.4l-5.7,5.7l-8.5,8.5c-1.6,1.6-1.6,4.1,0,5.7l1.4,1.4
				c1.6,1.6,4.1,1.6,5.7,0l8.5-8.5L32,50.2z"/>
		</g>
	</g>
</g>
<rect class="st1" width="88" height="88"/>
</svg>
