<?xml version="1.0" encoding="utf-8"?>
<!-- Generator: Adobe Illustrator 24.2.0, SVG Export Plug-In . SVG Version: 6.00 Build 0)  -->
<svg version="1.1" id="Layer_1" xmlns="http://www.w3.org/2000/svg" xmlns:xlink="http://www.w3.org/1999/xlink" x="0px" y="0px"
	 viewBox="0 0 6.9 12.8" style="enable-background:new 0 0 6.9 12.8;" xml:space="preserve">
<style type="text/css">
	.st0{clip-path:url(#SVGID_2_);}
	.st1{clip-path:url(#SVGID_4_);fill:#060606;}
</style>
<g>
	<defs>
		<path id="SVGID_1_" d="M0.4,12.8c0,0,0.1,0,0.2,0c0.1,0,0.1-0.1,0.1-0.1l6-6c0.1-0.1,0.1-0.2,0.1-0.3c0-0.1,0-0.2-0.1-0.3L0.8,0.1
			C0.7,0,0.6,0,0.5,0S0.3,0,0.2,0.1C0.1,0.2,0.1,0.3,0.1,0.4c0,0.1,0,0.2,0.1,0.3l5.6,5.6l-5.7,5.7C0,12.1,0,12.2,0,12.4
			s0,0.2,0.1,0.3c0,0,0.1,0.1,0.1,0.1C0.3,12.8,0.4,12.8,0.4,12.8z"/>
	</defs>
	<clipPath id="SVGID_2_">
		<use xlink:href="#SVGID_1_"  style="overflow:visible;"/>
	</clipPath>
	<g class="st0">
		<defs>
			<rect id="SVGID_3_" x="-834.8" y="-2020" width="1440" height="2672"/>
		</defs>
		<clipPath id="SVGID_4_">
			<use xlink:href="#SVGID_3_"  style="overflow:visible;"/>
		</clipPath>
		<rect x="-5" y="-5" class="st1" width="16.9" height="22.8"/>
	</g>
</g>
</svg>
