<?xml version="1.0" encoding="UTF-8"?>
<svg width="83px" height="65px" viewBox="0 0 83 65" version="1.1" xmlns="http://www.w3.org/2000/svg" xmlns:xlink="http://www.w3.org/1999/xlink">
    <!-- Generator: Sketch 63.1 (92452) - https://sketch.com -->
    <title>liqd-academy-icon_theory</title>
    <desc>Created with Sketch.</desc>
    <g id="Liquid-Academy" stroke="none" stroke-width="1" fill="none" fill-rule="evenodd" stroke-linecap="round" stroke-linejoin="round">
        <g id="Alle-Inhalte---6-Items-Level-2" transform="translate(-299.000000, -447.000000)" stroke="#060606" stroke-width="1.5">
            <g id="liqd-academy-icon_theory" transform="translate(300.000000, 448.000000)">
                <path d="M8.5,8.915 C6.22539847,8.92817556 4.04980554,9.84717894 2.45458316,11.4686756 C0.859360792,13.0901722 -0.0239817349,15.2804867 -0.00047585291,17.555 L-0.00047585291,54.275 C0.0137311169,59.041041 3.87395896,62.9012689 8.64,62.915 L72.36,62.915 C77.126041,62.9012689 80.9862689,59.041041 81.0004759,54.275 L81.0004759,17.555 C81.0239817,15.2804867 80.1406392,13.0901722 78.5454168,11.4686756 C76.9501945,9.84717894 74.7746015,8.92817556 72.5,8.915" id="Path"></path>
                <path d="M40.5,61.75 C21.42,51.18 8.5,59.54 8.5,59.54 L8.5,3.22 C8.5,3.22 21.42,-5.135 40.5,5.43" id="Path"></path>
                <path d="M40.5,61.75 C59.58,51.18 72.5,59.54 72.5,59.54 L72.5,3.22 C72.5,3.22 59.58,-5.135 40.5,5.43" id="Path"></path>
                <path d="M45.87,47.93 C58.545,40.905 67.13,46.46 67.13,46.46" id="Path"></path>
                <path d="M45.87,40.22 C58.545,33.22 67.13,38.755 67.13,38.755" id="Path"></path>
                <path d="M45.87,32.5 C58.545,25.5 67.13,31.035 67.13,31.035" id="Path"></path>
                <path d="M45.87,24.805 C58.545,17.805 67.13,23.335 67.13,23.335" id="Path"></path>
                <path d="M45.87,17.095 C58.545,10.095 67.13,15.625 67.13,15.625" id="Path"></path>
                <path d="M35.13,47.93 C22.455,40.905 13.87,46.46 13.87,46.46" id="Path"></path>
                <path d="M35.13,40.22 C22.455,33.22 13.87,38.755 13.87,38.755" id="Path"></path>
                <path d="M35.13,32.5 C22.455,25.5 13.87,31.035 13.87,31.035" id="Path"></path>
                <path d="M35.13,24.805 C22.455,17.805 13.87,23.335 13.87,23.335" id="Path"></path>
                <path d="M35.13,17.095 C22.455,10.095 13.87,15.625 13.87,15.625" id="Path"></path>
                <line x1="40.5" y1="60.915" x2="40.5" y2="5.75" id="Path"></line>
            </g>
        </g>
    </g>
</svg>