<?xml version="1.0" encoding="utf-8"?>
<!-- Generator: Adobe Illustrator 24.2.0, SVG Export Plug-In . SVG Version: 6.00 Build 0)  -->
<svg version="1.1" id="Layer_1" xmlns="http://www.w3.org/2000/svg" xmlns:xlink="http://www.w3.org/1999/xlink" x="0px" y="0px"
	 viewBox="0 0 88 88" style="enable-background:new 0 0 88 88;" xml:space="preserve">
<style type="text/css">
	.st0{fill:none;stroke:#060606;stroke-width:1.5;stroke-linecap:round;stroke-linejoin:round;}
	.st1{fill:none;}
</style>
<desc>Created with Sketch.</desc>
<g>
	<path id="Path" class="st0" d="M11.9,19.9c-2.3,0-4.5,0.9-6.1,2.6s-2.5,3.8-2.5,6.1v40.8c0,4.8,3.9,8.6,8.7,8.7h63.9
		c4.8,0,8.6-3.9,8.7-8.7V28.5c0-2.3-0.9-4.5-2.5-6.1s-3.8-2.5-6.1-2.6"/>
	<path id="Path_1_" class="st0" d="M44,74.8c-19.1-10.6-32.1-2.2-32.1-2.2V13.1c0,0,13-8.4,32.1,2.2"/>
	<path id="Path_2_" class="st0" d="M44,74.8c19.1-10.6,32.1-2.2,32.1-2.2V13.1c0,0-13-8.4-32.1,2.2"/>
	<g>
		<path id="Path_3_" class="st0" d="M49.4,62c12.7-7,21.3-1.5,21.3-1.5"/>
		<path id="Path_4_" class="st0" d="M49.4,54.3c12.7-7,21.3-1.5,21.3-1.5"/>
		<path id="Path_5_" class="st0" d="M49.4,46.6c12.7-7,21.3-1.5,21.3-1.5"/>
		<path id="Path_6_" class="st0" d="M49.4,38.9c12.7-7,21.3-1.5,21.3-1.5"/>
		<path id="Path_7_" class="st0" d="M49.4,31.1c12.7-7,21.3-1.5,21.3-1.5"/>
		<path id="Path_8_" class="st0" d="M38.6,62c-12.7-7-21.3-1.5-21.3-1.5"/>
		<path id="Path_9_" class="st0" d="M38.6,54.3c-12.7-7-21.3-1.5-21.3-1.5"/>
		<path id="Path_10_" class="st0" d="M38.6,46.6c-12.7-7-21.3-1.5-21.3-1.5"/>
		<path id="Path_11_" class="st0" d="M38.6,38.9c-12.7-7-21.3-1.5-21.3-1.5"/>
		<path id="Path_12_" class="st0" d="M38.6,31.1c-12.7-7-21.3-1.5-21.3-1.5"/>
		<path id="Path_16_" class="st0" d="M49.4,23.4c12.7-7,21.3-1.5,21.3-1.5"/>
		<path id="Path_14_" class="st0" d="M38.6,23.4c-12.7-7-21.3-1.5-21.3-1.5"/>
	</g>
	<line id="Path_13_" class="st0" x1="44" y1="74" x2="44" y2="15.7"/>
</g>
<rect class="st1" width="88" height="88"/>
</svg>
