<?xml version="1.0" encoding="utf-8"?>
<!-- Generator: Adobe Illustrator 24.1.3, SVG Export Plug-In . SVG Version: 6.00 Build 0)  -->
<svg version="1.1" id="Layer_1" xmlns="http://www.w3.org/2000/svg" xmlns:xlink="http://www.w3.org/1999/xlink" x="0px" y="0px"
	 viewBox="0 0 75 69" style="enable-background:new 0 0 75 69;" xml:space="preserve">
<style type="text/css">
	.st0{fill:none;stroke:#060606;stroke-width:1.5;stroke-linecap:round;stroke-linejoin:round;}
	.st1{clip-path:url(#SVGID_2_);}
	.st2{clip-path:url(#SVGID_4_);fill:#060606;}
	.st3{clip-path:url(#SVGID_6_);}
	.st4{clip-path:url(#SVGID_8_);fill:#060606;}
	.st5{clip-path:url(#SVGID_10_);}
	.st6{clip-path:url(#SVGID_12_);fill:#060606;}
</style>
<desc>Created with Sketch.</desc>
<path id="Path" class="st0" d="M67.5,45.5L67.5,45.5h-60l0,0V11c0-2.2,1.8-4,4-4h52c2.2,0,4,1.8,4,4V45.5z"/>
<path id="Path_1_" class="st0" d="M74,50.7c0,3-2.4,5.3-5.4,5.3H6.4c-3,0-5.4-2.4-5.4-5.3V6.3C1,3.4,3.4,1,6.4,1h62.3
	c3,0,5.4,2.4,5.4,5.3V50.7z"/>
<g id="Group-6" transform="translate(24.000000, 55.000000)">
	<path id="Path_2_" class="st0" d="M7.2,1c0,0-2.4,12-6.2,12"/>
	<path id="Path_3_" class="st0" d="M19,1c0,0,2.4,12,6.2,12"/>
</g>
<path id="Path_4_" class="st0" d="M34.5,20.4v-4.9c0-1.1,0.9-2,2.1-2h16.4c1.1,0,2.1,0.9,2.1,2.1v11.9c0,1.1-0.9,2.1-2.1,2.1h-2.4
	L46,33.1v-3.6h-5.3"/>
<path id="Path_5_" class="st0" d="M24.3,37.1l4.2,3.8v-3.8h9.4c1.1,0,2.1-0.9,2.1-2.1V23.1c0-1.1-0.9-2.1-2.1-2.1H21.1
	c-1.1,0-2.1,0.9-2.1,2.1V35c0,1.1,0.9,2.1,2.1,2.1H24.3z"/>
<line id="Path_6_" class="st0" x1="20" y1="68" x2="55" y2="68"/>
<g>
	<g>
		<defs>
			<circle id="SVGID_1_" cx="26.5" cy="28.9" r="1"/>
		</defs>
		<clipPath id="SVGID_2_">
			<use xlink:href="#SVGID_1_"  style="overflow:visible;"/>
		</clipPath>
		<g class="st1">
			<defs>
				<rect id="SVGID_3_" x="-1063.5" y="-443.1" width="1440" height="2672"/>
			</defs>
			<clipPath id="SVGID_4_">
				<use xlink:href="#SVGID_3_"  style="overflow:visible;"/>
			</clipPath>
			<rect x="20.5" y="22.9" class="st2" width="12" height="12"/>
		</g>
	</g>
	<g>
		<defs>
			<circle id="SVGID_5_" cx="29.5" cy="28.9" r="1"/>
		</defs>
		<clipPath id="SVGID_6_">
			<use xlink:href="#SVGID_5_"  style="overflow:visible;"/>
		</clipPath>
		<g class="st3">
			<defs>
				<rect id="SVGID_7_" x="-1063.5" y="-443.1" width="1440" height="2672"/>
			</defs>
			<clipPath id="SVGID_8_">
				<use xlink:href="#SVGID_7_"  style="overflow:visible;"/>
			</clipPath>
			<rect x="23.5" y="22.9" class="st4" width="12" height="12"/>
		</g>
	</g>
	<g>
		<defs>
			<circle id="SVGID_9_" cx="32.5" cy="28.9" r="1"/>
		</defs>
		<clipPath id="SVGID_10_">
			<use xlink:href="#SVGID_9_"  style="overflow:visible;"/>
		</clipPath>
		<g class="st5">
			<defs>
				<rect id="SVGID_11_" x="-1063.5" y="-443.1" width="1440" height="2672"/>
			</defs>
			<clipPath id="SVGID_12_">
				<use xlink:href="#SVGID_11_"  style="overflow:visible;"/>
			</clipPath>
			<rect x="26.5" y="22.9" class="st6" width="12" height="12"/>
		</g>
	</g>
</g>
</svg>
