<?xml version="1.0" encoding="utf-8"?>
<!-- Generator: Adobe Illustrator 24.2.0, SVG Export Plug-In . SVG Version: 6.00 Build 0)  -->
<svg version="1.1" id="Layer_1" xmlns="http://www.w3.org/2000/svg" xmlns:xlink="http://www.w3.org/1999/xlink" x="0px" y="0px"
	 viewBox="0 0 88 88" style="enable-background:new 0 0 88 88;" xml:space="preserve">
<style type="text/css">
	.st0{fill:none;stroke:#060606;stroke-width:1.5;stroke-linecap:round;stroke-linejoin:round;}
	.st1{fill:#060606;}
	.st2{fill:none;}
</style>
<desc>Created with Sketch.</desc>
<g>
	<path id="Path" class="st0" d="M74,55.5L74,55.5H14l0,0V20c0-2.2,1.8-4,4-4h52c2.2,0,4,1.8,4,4V55.5z"/>
	<path id="Path_1_" class="st0" d="M80.5,60.7c0,3-2.4,5.3-5.4,5.3H12.9c-3,0-5.4-2.4-5.4-5.3V15.3c0-2.9,2.4-5.3,5.4-5.3h62.3
		c3,0,5.4,2.4,5.4,5.3L80.5,60.7L80.5,60.7z"/>
	<g id="Group-6" transform="translate(24.000000, 55.000000)">
		<path id="Path_2_" class="st0" d="M13.7,11c0,0-2.4,12-6.2,12"/>
		<path id="Path_3_" class="st0" d="M25.5,11c0,0,2.4,12,6.2,12"/>
	</g>
	<path id="Path_4_" class="st0" d="M41,30.4v-4.9c0-1.1,0.9-2,2.1-2h16.4c1.1,0,2.1,0.9,2.1,2.1v11.9c0,1.1-0.9,2.1-2.1,2.1h-2.4
		l-4.6,3.5v-3.6h-5.3"/>
	<path id="Path_5_" class="st0" d="M30.8,47.1l4.2,3.8v-3.8h9.4c1.1,0,2.1-0.9,2.1-2.1V33.1c0-1.1-0.9-2.1-2.1-2.1H27.6
		c-1.1,0-2.1,0.9-2.1,2.1V45c0,1.1,0.9,2.1,2.1,2.1H30.8z"/>
	<line id="Path_6_" class="st0" x1="24.5" y1="78" x2="63.5" y2="78"/>
	<g>
		<circle class="st1" cx="39" cy="38.9" r="1"/>
		<circle class="st1" cx="36" cy="38.9" r="1"/>
		<circle class="st1" cx="33" cy="38.9" r="1"/>
	</g>
</g>
<rect class="st2" width="88" height="88"/>
</svg>
