<?xml version="1.0" encoding="utf-8"?>
<!-- Generator: Adobe Illustrator 15.0.0, SVG Export Plug-In . SVG Version: 6.00 Build 0)  -->
<!DOCTYPE svg PUBLIC "-//W3C//DTD SVG 1.1//EN" "http://www.w3.org/Graphics/SVG/1.1/DTD/svg11.dtd">
<svg version="1.1" id="Ebene_1" xmlns:sketch="http://www.bohemiancoding.com/sketch/ns"
	 xmlns="http://www.w3.org/2000/svg" xmlns:xlink="http://www.w3.org/1999/xlink" x="0px" y="0px" width="157.818px"
	 height="124.458px" viewBox="35 13 157.818 124.458" enable-background="new 35 13 157.818 124.458" xml:space="preserve">
<title>Group</title>
<desc>Created with Sketch.</desc>
<circle id="Oval-32" sketch:type="MSShapeGroup" fill="#FF2A5F" cx="112.5" cy="74.5" r="47.5">
</circle>
<circle id="Oval-32_1_" sketch:type="MSShapeGroup" fill="#C1113C" cx="114.5" cy="75.5" r="23.5">
</circle>
<path id="Line" sketch:type="MSShapeGroup" fill="none" stroke="#FFD1DC" stroke-width="3" stroke-linecap="square" d="M131.5,67.5
	l26-13"/>
<circle id="Oval-32_2_" sketch:type="MSShapeGroup" fill="#FFD0DC" cx="112.5" cy="74.5" r="23.5">
</circle>
<g transform="translate(98.000000, 63.000000)" sketch:type="MSShapeGroup">
	<path id="Fill-561" fill="#BD133D" d="M7.307,19.148c0,0.961,0.781,1.74,1.745,1.74H19.52l5.233,5.223v-5.223h1.745
		c0.963,0,1.744-0.779,1.744-1.74V5.222c0-0.961-0.781-1.741-1.744-1.741H9.052c-0.963,0-1.745,0.779-1.745,1.741V19.148z"/>
	<path id="Fill-562" fill="#FFFFFF" d="M21.264,15.666c0,0.962-0.781,1.74-1.744,1.74H9.052l-5.234,5.223v-5.223H2.073
		c-0.963,0-1.745-0.778-1.745-1.74V1.741C0.329,0.779,1.11,0,2.073,0H19.52c0.963,0,1.744,0.779,1.744,1.741V15.666z"/>
	<path id="Fill-564" fill="#FF2A5F" d="M7.307,8.704c0,0.961-0.781,1.741-1.745,1.741s-1.744-0.78-1.744-1.741
		s0.781-1.741,1.745-1.741S7.307,7.742,7.307,8.704"/>
	<path id="Fill-565" fill="#FF2A5F" d="M12.541,8.704c0,0.961-0.781,1.741-1.745,1.741s-1.744-0.78-1.744-1.741
		s0.781-1.741,1.745-1.741C11.761,6.963,12.541,7.742,12.541,8.704"/>
	<path id="Fill-566" fill="#FF2A5F" d="M17.773,8.704c0,0.961-0.78,1.741-1.744,1.741c-0.963,0-1.744-0.779-1.744-1.741
		s0.781-1.741,1.744-1.741C16.993,6.963,17.773,7.742,17.773,8.704"/>
</g>
<g id="Oval-38" transform="translate(145.000000, 26.000000)" sketch:type="MSShapeGroup">
	<ellipse fill="#FFD0DC" cx="23.909" cy="23.5" rx="23.909" ry="23.5"/>
</g>
<g transform="translate(35.000000, 13.000000)" sketch:type="MSShapeGroup">
	<circle id="Oval-34" fill="#FFFFFF" cx="24" cy="24" r="24"/>
	<circle id="Oval-34_1_" fill="#FFA7BD" cx="23" cy="25" r="16"/>
	<rect id="Rectangle-58" x="23" y="9" fill="#FFFFFF" width="18" height="18"/>
	<path id="Oval-34_2_" fill="#FF2A5F" d="M42.969,23C42.99,22.669,43,22.336,43,22c0-8.836-7.164-16-16-16v24.5V23H42.969z"/>
</g>
<g transform="translate(160.261240, 36.750000)" sketch:type="MSShapeGroup">
	<path id="Fill-392" fill="#FF4775" d="M0.293,1.504C0.293,0.673,0.965,0,1.793,0h10.992l6.246,5.264v18.298
		c0,0.831-0.673,1.504-1.5,1.504H1.793c-0.828,0-1.5-0.673-1.5-1.504V1.504z"/>
	<rect id="Rectangle-60" x="2.608" y="6.051" fill="#BC133D" width="13.911" height="0.864"/>
	<path id="Fill-393" fill="#D12B54" d="M12.786,0v3.76c0,0.831,0.672,1.504,1.5,1.504h4.746L12.786,0z"/>
	<rect id="Rectangle-60_1_" x="2.608" y="11.237" fill="#BC133D" width="13.911" height="0.864"/>
	<rect id="Rectangle-60_2_" x="2.608" y="12.965" fill="#BC133D" width="9.564" height="0.865"/>
	<rect id="Rectangle-60_3_" x="2.608" y="16.423" fill="#BC133D" width="13.911" height="0.865"/>
	<rect id="Rectangle-60_4_" x="2.608" y="7.779" fill="#BC133D" width="9.564" height="0.864"/>
	<rect id="Rectangle-60_5_" x="2.608" y="18.152" fill="#BC133D" width="9.564" height="0.864"/>
</g>
<path id="Line_1_" sketch:type="MSShapeGroup" fill="none" stroke="#FFD1DC" stroke-width="3" stroke-linecap="square" d="
	M111.5,133.5v-40"/>
<g id="Oval-38_1_" transform="translate(99.000000, 112.000000)" sketch:type="MSShapeGroup">
	<ellipse fill="#FFD0DC" cx="12.951" cy="12.729" rx="12.951" ry="12.729"/>
</g>
</svg>
