<?xml version="1.0" encoding="utf-8"?>
<!-- Generator: Adobe Illustrator 15.0.0, SVG Export Plug-In . SVG Version: 6.00 Build 0)  -->
<!DOCTYPE svg PUBLIC "-//W3C//DTD SVG 1.1//EN" "http://www.w3.org/Graphics/SVG/1.1/DTD/svg11.dtd">
<svg version="1.1" id="Ebene_1" xmlns:sketch="http://www.bohemiancoding.com/sketch/ns"
	 xmlns="http://www.w3.org/2000/svg" xmlns:xlink="http://www.w3.org/1999/xlink" x="0px" y="0px" width="139px" height="107.84px"
	 viewBox="0 0 139 107.84" enable-background="new 0 0 139 107.84" xml:space="preserve">
<title>software</title>
<desc>Created with Sketch.</desc>
<g id="Group" transform="translate(54.000000, 43.532847)" sketch:type="MSShapeGroup">
	<path id="Fill-728" fill="#FFC956" d="M1.219,43.254H-21v-9.428H1.219V43.254z"/>
	<rect id="Rectangle-50" x="-21" y="32.905" fill="#E39A00" width="22.219" height="3.475"/>
	<path id="Fill-727" fill="#FFFCF1" stroke="#FAAA01" stroke-width="5" d="M31.558,30.146c0,2.034-1.657,3.68-3.702,3.68h-74.063
		c-2.046,0-3.703-1.646-3.703-3.68v-51.512c0-2.033,1.657-3.679,3.703-3.679h74.063c2.045,0,3.702,1.646,3.702,3.679V30.146z"/>
	<rect id="Rectangle-49" x="-26.484" y="42.592" fill="#FAAA01" width="34.839" height="3.475"/>
	<path id="Fill-730" fill="#FAAA01" d="M31.558,30.146V19.109h-81.469v11.037c0,2.032,1.659,3.68,3.703,3.68h74.063
		C29.898,33.827,31.558,32.178,31.558,30.146"/>
</g>
<rect id="Rectangle-51" x="63.226" y="1" sketch:type="MSShapeGroup" fill="#FFC956" width="44.419" height="18.241">
</rect>
<ellipse id="Oval-28" sketch:type="MSShapeGroup" fill="#FA9101" cx="62.791" cy="10.12" rx="9.145" ry="9.12">
</ellipse>
<rect id="Rectangle-52" x="53.645" y="10.555" sketch:type="MSShapeGroup" fill="#FA9101" width="18.291" height="8.686">
</rect>
<rect id="Rectangle-51_1_" x="71.936" y="1" sketch:type="MSShapeGroup" fill="#FFC956" width="33.968" height="17.372">
</rect>
<ellipse id="Oval-28_1_" sketch:type="MSShapeGroup" fill="#FFC956" cx="107.209" cy="10.12" rx="9.146" ry="9.12">
</ellipse>
<rect id="Rectangle-51_2_" x="71.936" y="9.686" sketch:type="MSShapeGroup" fill="#FFC956" width="44.42" height="89.468">
</rect>
<path id="Line" sketch:type="MSShapeGroup" fill="none" stroke="#F86620" stroke-width="4" stroke-linecap="round" d="
	M23.855,46.379h85.79"/>
<rect id="Rectangle-51_3_" x="81.516" y="93.072" sketch:type="MSShapeGroup" fill="#FA9101" width="44.42" height="14.768">
</rect>
<rect id="Rectangle-56" x="80.645" y="83.518" sketch:type="MSShapeGroup" fill="#FFC956" width="9.581" height="16.504">
</rect>
<ellipse id="Oval-28_2_" sketch:type="MSShapeGroup" fill="#FFC956" cx="81.08" cy="98.72" rx="9.146" ry="9.12">
</ellipse>
<ellipse id="Oval-28_3_" sketch:type="MSShapeGroup" fill="#FA9101" cx="126.371" cy="98.72" rx="9.145" ry="9.12">
</ellipse>
<rect id="Rectangle-56_1_" x="117.226" y="76.57" sketch:type="MSShapeGroup" fill="#FFFFFF" width="21.774" height="16.502">
</rect>
<rect id="Rectangle-56_2_" x="117.226" y="93.072" sketch:type="MSShapeGroup" fill="#FA9101" width="18.29" height="6.082">
</rect>
<path id="Line_1_" sketch:type="MSShapeGroup" fill="none" stroke="#E29A00" stroke-width="4" stroke-linecap="round" d="
	M109.65,64.015H80.545"/>
<path id="Line_2_" sketch:type="MSShapeGroup" fill="none" stroke="#E29A00" stroke-width="4" stroke-linecap="round" d="
	M109.645,28.613H79.674"/>
<path id="Line_3_" sketch:type="MSShapeGroup" fill="none" stroke="#E29A00" stroke-width="4" stroke-linecap="round" d="
	M109.645,20.109H79.674"/>
<path id="Line_4_" sketch:type="MSShapeGroup" fill="none" stroke="#FAAA01" stroke-width="4" stroke-linecap="round" d="
	M15.436,29.708H56"/>
<path id="Line_5_" sketch:type="MSShapeGroup" fill="none" stroke="#FAAA01" stroke-width="4" stroke-linecap="round" d="
	M23.436,38.708H34"/>
<path id="Line_6_" sketch:type="MSShapeGroup" fill="none" stroke="#FAAA01" stroke-width="4" stroke-linecap="round" d="
	M15.436,54.789H43"/>
<path id="Line_7_" sketch:type="MSShapeGroup" fill="none" stroke="#E29A00" stroke-width="4" stroke-linecap="round" d="
	M109.645,37.613H79.674"/>
<path id="Line_8_" sketch:type="MSShapeGroup" fill="none" stroke="#E29A00" stroke-width="4" stroke-linecap="round" d="
	M109.645,55.613H79.674"/>
</svg>
